# xmcd
# 
# Track frame offsets:
#     150
#     13635
#     30512
#     48134
#     63690
#     90291
#     115942
#     134993
#     153858
#     171492
#     190969
#     206816
#     222600
#     236910
#     253267
#     270556
#     288069
#     304893
#     323175
# 
# Disc length: 4516
# 
# Revision: 3
# Processed by: cddbd v1.5.2PL0 Copyright (c) Steve Scherf et al.
# Submitted via: fre:ac v1.0.27
# 
DISCID=2111a213
DTITLE=Various Artist - Motown: The Complete No. 1's
DYEAR=2008
DGENRE=R&B
TTITLE0=The Miracles - Love Machine (Part 1)
TTITLE1=Diana Ross - Love Hangover
TTITLE2=Marvin Gaye - I Want You
TTITLE3=The Commodores - Just To Be Close To You
TTITLE4=The Originals - Down To Love Town
TTITLE5=Thelma Houston - Don't Leave Me This Way
TTITLE6=Stevie Wonder - I Wish
TTITLE7=Marvin Gaye - Got To Give It Up
TTITLE8=Stevie Wonder - Sir Duke
TTITLE9=The Commodores - Easy
TTITLE10=High Inergy - You Can't Turn Me Off (In Middle Of Turning Me On)
TTITLE11=The Commodores - Too Hot Ta Trot
TTITLE12=Rick James - You And I
TTITLE13=The Commodores - Three Times A Lady
TTITLE14=Diana Ross - The Boss
TTITLE15=The Commodores - Sail On
TTITLE16=The Commodores - Still
TTITLE17=Stevie Wonder - Send One Your Love
TTITLE18=Stevie Wonder - Pastime Paradise
EXTD=
EXTT0=
EXTT1=
EXTT2=
EXTT3=
EXTT4=
EXTT5=
EXTT6=
EXTT7=
EXTT8=
EXTT9=
EXTT10=
EXTT11=
EXTT12=
EXTT13=
EXTT14=
EXTT15=
EXTT16=
EXTT17=
EXTT18=
PLAYORDER=
